<svg width="29" height="23" viewBox="0 0 29 23" fill="none" xmlns="http://www.w3.org/2000/svg">
<g clip-path="url(#clip0_115_88)">
<path d="M14.5476 1.79626V21.857" stroke="#969CB3" stroke-width="1.5" stroke-linecap="round" stroke-linejoin="round"/>
<path d="M20.2409 5.44376H11.7009C10.644 5.44376 9.63028 5.78 8.88288 6.37852C8.13549 6.97704 7.71561 7.78881 7.71561 8.63524C7.71561 9.48167 8.13549 10.2934 8.88288 10.892C9.63028 11.4905 10.644 11.8267 11.7009 11.8267H17.3943C18.4513 11.8267 19.4649 12.163 20.2123 12.7615C20.9597 13.36 21.3796 14.1718 21.3796 15.0182C21.3796 15.8646 20.9597 16.6764 20.2123 17.2749C19.4649 17.8734 18.4513 18.2097 17.3943 18.2097H7.71561" stroke="#363F5F" stroke-width="1.5" stroke-linecap="round" stroke-linejoin="round"/>
</g>
<defs>
<clipPath id="clip0_115_88">
<rect width="27.328" height="21.8845" fill="white" transform="translate(0.883606 0.88446)"/>
</clipPath>
</defs>
</svg>
