<svg width="32" height="31" viewBox="0 0 32 31" fill="none" xmlns="http://www.w3.org/2000/svg">
<path d="M16 3.03568V27.9043" stroke="#38D61E" stroke-width="2" stroke-linecap="round" stroke-linejoin="round"/>
<path d="M23 10.6875C23 10.0595 22.8707 9.43762 22.6194 8.85739C22.3681 8.27716 21.9998 7.74995 21.5355 7.30586C21.0712 6.86177 20.52 6.5095 19.9134 6.26916C19.3068 6.02882 18.6566 5.90512 18 5.90512H13.5C12.1739 5.90512 10.9021 6.40898 9.96447 7.30586C9.02678 8.20274 8.5 9.41916 8.5 10.6875C8.5 11.9559 9.02678 13.1723 9.96447 14.0692C10.9021 14.9661 12.1739 15.47 13.5 15.47H19C20.3261 15.47 21.5979 15.9738 22.5355 16.8707C23.4732 17.7676 24 18.984 24 20.2524C24 21.5208 23.4732 22.7372 22.5355 23.6341C21.5979 24.5309 20.3261 25.0348 19 25.0348H13C11.6739 25.0348 10.4021 24.5309 9.46447 23.6341C8.52678 22.7372 8 21.5208 8 20.2524" stroke="#38D61E" stroke-width="2" stroke-linecap="round" stroke-linejoin="round"/>
</svg>
